<?xml version="1.0" encoding="UTF-8" standalone="no"?>
<!DOCTYPE svg PUBLIC "-//W3C//DTD SVG 1.1//EN"
 "http://www.w3.org/Graphics/SVG/1.1/DTD/svg11.dtd">
<!-- Generated by graphviz version 12.2.1 (20241206.2353)
 -->
<!-- Pages: 1 -->
<svg width="285pt" height="398pt"
 viewBox="0.00 0.00 285.00 398.00" xmlns="http://www.w3.org/2000/svg" xmlns:xlink="http://www.w3.org/1999/xlink">
<g id="graph0" class="graph" transform="scale(1 1) rotate(0) translate(4 394)">
<polygon fill="white" stroke="none" points="-4,4 -4,-394 281,-394 281,4 -4,4"/>
<!-- 0 -->
<g id="node1" class="node">
<title>0</title>
<ellipse fill="none" stroke="black" cx="42" cy="-372" rx="40.6" ry="18"/>
<text text-anchor="middle" x="42" y="-366.95" font-family="Times New Roman,serif" font-size="14.00">freq=14</text>
</g>
<!-- 1 -->
<g id="node2" class="node">
<title>1</title>
<polygon fill="none" stroke="black" points="54,-301.5 0,-301.5 0,-265.5 54,-265.5 54,-301.5"/>
<text text-anchor="middle" x="27" y="-278.45" font-family="Times New Roman,serif" font-size="14.00">&#39;A&#39;: 6</text>
</g>
<!-- 0&#45;&gt;1 -->
<g id="edge1" class="edge">
<title>0&#45;&gt;1</title>
<path fill="none" stroke="black" d="M39.04,-353.91C37.02,-342.26 34.29,-326.55 31.95,-313.02"/>
<polygon fill="black" stroke="black" points="35.42,-312.6 30.27,-303.34 28.53,-313.79 35.42,-312.6"/>
<text text-anchor="middle" x="39.22" y="-322.7" font-family="Times New Roman,serif" font-size="14.00">0</text>
</g>
<!-- 2 -->
<g id="node3" class="node">
<title>2</title>
<ellipse fill="none" stroke="black" cx="108" cy="-283.5" rx="36" ry="18"/>
<text text-anchor="middle" x="108" y="-278.45" font-family="Times New Roman,serif" font-size="14.00">freq=8</text>
</g>
<!-- 0&#45;&gt;2 -->
<g id="edge2" class="edge">
<title>0&#45;&gt;2</title>
<path fill="none" stroke="black" d="M54.41,-354.73C64.09,-342.04 77.71,-324.2 88.79,-309.68"/>
<polygon fill="black" stroke="black" points="91.44,-311.97 94.72,-301.9 85.87,-307.73 91.44,-311.97"/>
<text text-anchor="middle" x="84.29" y="-322.7" font-family="Times New Roman,serif" font-size="14.00">1</text>
</g>
<!-- 3 -->
<g id="node4" class="node">
<title>3</title>
<polygon fill="none" stroke="black" points="107,-213 53,-213 53,-177 107,-177 107,-213"/>
<text text-anchor="middle" x="80" y="-189.95" font-family="Times New Roman,serif" font-size="14.00">&#39;N&#39;: 4</text>
</g>
<!-- 2&#45;&gt;3 -->
<g id="edge3" class="edge">
<title>2&#45;&gt;3</title>
<path fill="none" stroke="black" d="M102.47,-265.41C98.66,-253.64 93.51,-237.73 89.1,-224.11"/>
<polygon fill="black" stroke="black" points="92.49,-223.23 86.08,-214.79 85.83,-225.38 92.49,-223.23"/>
<text text-anchor="middle" x="99.88" y="-234.2" font-family="Times New Roman,serif" font-size="14.00">0</text>
</g>
<!-- 4 -->
<g id="node5" class="node">
<title>4</title>
<ellipse fill="none" stroke="black" cx="161" cy="-195" rx="36" ry="18"/>
<text text-anchor="middle" x="161" y="-189.95" font-family="Times New Roman,serif" font-size="14.00">freq=4</text>
</g>
<!-- 2&#45;&gt;4 -->
<g id="edge4" class="edge">
<title>2&#45;&gt;4</title>
<path fill="none" stroke="black" d="M118.22,-265.82C125.77,-253.5 136.2,-236.47 144.88,-222.32"/>
<polygon fill="black" stroke="black" points="147.78,-224.27 150.02,-213.92 141.81,-220.62 147.78,-224.27"/>
<text text-anchor="middle" x="142.62" y="-234.2" font-family="Times New Roman,serif" font-size="14.00">1</text>
</g>
<!-- 5 -->
<g id="node6" class="node">
<title>5</title>
<polygon fill="none" stroke="black" points="160,-124.5 106,-124.5 106,-88.5 160,-88.5 160,-124.5"/>
<text text-anchor="middle" x="133" y="-101.45" font-family="Times New Roman,serif" font-size="14.00">&#39;B&#39;: 2</text>
</g>
<!-- 4&#45;&gt;5 -->
<g id="edge5" class="edge">
<title>4&#45;&gt;5</title>
<path fill="none" stroke="black" d="M155.47,-176.91C151.66,-165.14 146.51,-149.23 142.1,-135.61"/>
<polygon fill="black" stroke="black" points="145.49,-134.73 139.08,-126.29 138.83,-136.88 145.49,-134.73"/>
<text text-anchor="middle" x="152.88" y="-145.7" font-family="Times New Roman,serif" font-size="14.00">0</text>
</g>
<!-- 6 -->
<g id="node7" class="node">
<title>6</title>
<ellipse fill="none" stroke="black" cx="214" cy="-106.5" rx="36" ry="18"/>
<text text-anchor="middle" x="214" y="-101.45" font-family="Times New Roman,serif" font-size="14.00">freq=2</text>
</g>
<!-- 4&#45;&gt;6 -->
<g id="edge6" class="edge">
<title>4&#45;&gt;6</title>
<path fill="none" stroke="black" d="M171.22,-177.32C178.77,-165 189.2,-147.97 197.88,-133.82"/>
<polygon fill="black" stroke="black" points="200.78,-135.77 203.02,-125.42 194.81,-132.12 200.78,-135.77"/>
<text text-anchor="middle" x="195.62" y="-145.7" font-family="Times New Roman,serif" font-size="14.00">1</text>
</g>
<!-- 7 -->
<g id="node8" class="node">
<title>7</title>
<polygon fill="none" stroke="black" points="205,-36 151,-36 151,0 205,0 205,-36"/>
<text text-anchor="middle" x="178" y="-12.95" font-family="Times New Roman,serif" font-size="14.00">&#39;D&#39;: 1</text>
</g>
<!-- 6&#45;&gt;7 -->
<g id="edge7" class="edge">
<title>6&#45;&gt;7</title>
<path fill="none" stroke="black" d="M206.89,-88.41C201.94,-76.52 195.23,-60.41 189.53,-46.7"/>
<polygon fill="black" stroke="black" points="192.88,-45.64 185.8,-37.75 186.41,-48.32 192.88,-45.64"/>
<text text-anchor="middle" x="202.6" y="-57.2" font-family="Times New Roman,serif" font-size="14.00">0</text>
</g>
<!-- 8 -->
<g id="node9" class="node">
<title>8</title>
<polygon fill="none" stroke="black" points="277,-36 223,-36 223,0 277,0 277,-36"/>
<text text-anchor="middle" x="250" y="-12.95" font-family="Times New Roman,serif" font-size="14.00">&#39; &#39;: 1</text>
</g>
<!-- 6&#45;&gt;8 -->
<g id="edge8" class="edge">
<title>6&#45;&gt;8</title>
<path fill="none" stroke="black" d="M221.11,-88.41C226.06,-76.52 232.77,-60.41 238.47,-46.7"/>
<polygon fill="black" stroke="black" points="241.59,-48.32 242.2,-37.75 235.12,-45.64 241.59,-48.32"/>
<text text-anchor="middle" x="238.6" y="-57.2" font-family="Times New Roman,serif" font-size="14.00">1</text>
</g>
</g>
</svg>
